# xmcd CD database file
#
# Track frame offsets:
#	150
#	30295
#	80662
#	99801
#	140248
#	187029
#	211716
#	230706
#	268934
#
# Disc length: 3937 seconds
#
# Revision: 0
# Processed by: cddbd v1.5.2PL0 Copyright (c) Steve Scherf et al.
# Submitted via: CDex 1.70beta2
#
DISCID=7a0f5f09
DTITLE=Maurizio Giammarco with Bill Stuart - Jazz Italiano Live 2007
DYEAR=2007
DGENRE=Jazz
TTITLE0=Side slide
TTITLE1=Ed Blackwell
TTITLE2=Parenti stretti
TTITLE3=Dispneade
TTITLE4=Blue
TTITLE5=Released
TTITLE6=Lode al silenzio
TTITLE7=Conn
TTITLE8=Observers are worried, believers are enjoying
EXTD=YEAR: 2007
EXTT0=
EXTT1=
EXTT2=
EXTT3=
EXTT4=
EXTT5=
EXTT6=
EXTT7=
EXTT8=
PLAYORDER=
